HIERARCHY
ROOT Hips
{
	OFFSET 0.00000 0.00000 0.00000
	CHANNELS 6 Xposition Yposition Zposition Zrotation Yrotation Xrotation 
	JOINT LHipJoint
	{
		OFFSET 0 0 0
		CHANNELS 3 Zrotation Yrotation Xrotation
		JOINT LeftUpLeg
		{
			OFFSET 1.58895 -1.83665 0.71753
			CHANNELS 3 Zrotation Yrotation Xrotation
			JOINT LeftLeg
			{
				OFFSET 2.50528 -6.88321 0.00000
				CHANNELS 3 Zrotation Yrotation Xrotation
				JOINT LeftFoot
				{
					OFFSET 2.63244 -7.23257 0.00000
					CHANNELS 3 Zrotation Yrotation Xrotation
					JOINT LeftToeBase
					{
						OFFSET 0.23691 -0.65090 1.72750
						CHANNELS 3 Zrotation Yrotation Xrotation
						End Site
						{
							OFFSET 0.00000 -0.00000 0.92561
						}
					}
				}
			}
		}
	}
	JOINT RHipJoint
	{
		OFFSET 0 0 0
		CHANNELS 3 Zrotation Yrotation Xrotation
		JOINT RightUpLeg
		{
			OFFSET -1.51435 -1.83665 0.71753
			CHANNELS 3 Zrotation Yrotation Xrotation
			JOINT RightLeg
			{
				OFFSET -2.54551 -6.99375 0.00000
				CHANNELS 3 Zrotation Yrotation Xrotation
				JOINT RightFoot
				{
					OFFSET -2.66027 -7.30903 0.00000
					CHANNELS 3 Zrotation Yrotation Xrotation
					JOINT RightToeBase
					{
						OFFSET -0.22981 -0.63138 2.03959
						CHANNELS 3 Zrotation Yrotation Xrotation
						End Site
						{
							OFFSET -0.00000 -0.00000 1.07060
						}
					}
				}
			}
		}
	}
	JOINT LowerBack
	{
		OFFSET 0 0 0
		CHANNELS 3 Zrotation Yrotation Xrotation
		JOINT Spine
		{
			OFFSET -0.02651 1.86275 -0.11152
			CHANNELS 3 Zrotation Yrotation Xrotation
			JOINT Spine1
			{
				OFFSET 0.01019 1.86224 0.04087
				CHANNELS 3 Zrotation Yrotation Xrotation
				JOINT Neck
				{
					OFFSET 0 0 0
					CHANNELS 3 Zrotation Yrotation Xrotation
					JOINT Neck1
					{
						OFFSET -0.01926 1.80512 0.08867
						CHANNELS 3 Zrotation Yrotation Xrotation
						JOINT Head
						{
							OFFSET 0.05516 1.76451 -0.38475
							CHANNELS 3 Zrotation Yrotation Xrotation
							End Site
							{
								OFFSET 0.01592 1.82587 -0.14001
							}
						}
					}
				}
				JOINT LeftShoulder
				{
					OFFSET 0 0 0
					CHANNELS 3 Zrotation Yrotation Xrotation
					JOINT LeftArm
					{
						OFFSET 3.47116 1.51376 0.14491
						CHANNELS 3 Zrotation Yrotation Xrotation
						JOINT LeftForeArm
						{
							OFFSET 4.78095 -0.00000 0.00000
							CHANNELS 3 Zrotation Yrotation Xrotation
							JOINT LeftHand
							{
								OFFSET 3.58615 -0.00000 -0.00000
								CHANNELS 3 Zrotation Yrotation Xrotation
								JOINT LeftFingerBase
								{
									OFFSET 0 0 0
									CHANNELS 3 Zrotation Yrotation Xrotation
									JOINT LeftHandIndex1
									{
										OFFSET 0.65981 -0.00000 0.00000
										CHANNELS 3 Zrotation Yrotation Xrotation
										End Site
										{
											OFFSET 0.53196 -0.00000 0.00000
										}
									}
								}
								JOINT LThumb
								{
									OFFSET 0 0 0
									CHANNELS 3 Zrotation Yrotation Xrotation
									End Site
									{
										OFFSET 0.54008 -0.00000 0.54008
									}
								}
							}
						}
					}
				}
				JOINT RightShoulder
				{
					OFFSET 0 0 0
					CHANNELS 3 Zrotation Yrotation Xrotation
					JOINT RightArm
					{
						OFFSET -3.31725 1.61216 0.35156
						CHANNELS 3 Zrotation Yrotation Xrotation
						JOINT RightForeArm
						{
							OFFSET -4.48913 -0.00000 0.00000
							CHANNELS 3 Zrotation Yrotation Xrotation
							JOINT RightHand
							{
								OFFSET -3.70510 -0.00000 0.00000
								CHANNELS 3 Zrotation Yrotation Xrotation
								JOINT RightFingerBase
								{
									OFFSET 0 0 0
									CHANNELS 3 Zrotation Yrotation Xrotation
									JOINT RightHandIndex1
									{
										OFFSET -0.44914 -0.00000 0.00000
										CHANNELS 3 Zrotation Yrotation Xrotation
										End Site
										{
											OFFSET -0.36211 -0.00000 0.00000
										}
									}
								}
								JOINT RThumb
								{
									OFFSET 0 0 0
									CHANNELS 3 Zrotation Yrotation Xrotation
									End Site
									{
										OFFSET -0.36763 -0.00000 0.36763
									}
								}
							}
						}
					}
				}
			}
		}
	}
}
MOTION
Frames: 9
Frame Time: .0083333
-1.2162 18.9237 5.0889 -3.1369 9.2025 21.6625 0.0000 0.0000 0.0000 -0.4787 -20.7795 -30.1035 1.5887 7.9510 22.5654 0.4663 6.4189 -16.8329 8.9126 -16.7511 -55.7873 0.0000 0.0000 0.0000 21.0085 -1.4778 -18.6465 0.0000 0.0000 -0.0000 -0.4234 -9.0579 -18.7588 -0.0037 0.3946 -1.0843 -7.7368 1.9424 26.9706 -2.4105 -0.2314 0.0801 1.6962 0.3437 -14.2978 -4.6522 -3.1674 -13.9883 10.8098 -3.5946 -4.1597 3.8498 -1.4851 1.3180 -0.0000 -0.0000 0.0000 -121.9402 -62.7004 108.2359 161.0115 -29.4044 -114.9748 -0.0000 0.0000 -47.2680 35.3677 -41.3078 -25.1055 -7.1250 0.0000 -0.0000 -0.5666 -17.1583 0.7086 -0.0000 -0.0000 0.0000 115.7606 53.2973 107.9790 -161.9140 28.2672 -115.4101 0.0000 -0.0000 -24.0700 -33.1365 -16.9977 10.8041 7.1250 -0.0000 -0.0000 -5.2584 -49.9619 0.6448
-1.2076 18.9261 5.0991 -3.0315 9.0895 21.6239 0.0000 0.0000 0.0000 -0.6462 -20.8916 -29.9282 1.5890 7.9516 22.5672 0.4741 6.5326 -17.0217 8.8762 -16.7274 -55.6611 0.0000 0.0000 0.0000 20.8220 -1.4395 -18.5124 0.0000 0.0000 -0.0000 -0.4308 -9.0398 -18.8238 -0.0053 0.4722 -1.2975 -7.3852 1.9218 27.1673 -2.5009 -0.2079 -0.2832 1.3944 0.3485 -14.8251 -4.6085 -3.1960 -12.7082 10.5178 -3.6691 -4.4273 4.1392 -1.5763 1.1377 -0.0000 0.0000 0.0000 -121.1920 -61.9920 108.4024 160.8346 -29.6237 -114.8876 -0.0000 0.0000 -44.2896 36.2535 -42.1372 -26.1969 -7.1250 0.0000 -0.0000 -0.3998 -18.3084 0.5051 -0.0000 0.0000 0.0000 115.3269 51.9911 107.8221 -161.7338 28.4967 -115.3244 0.0000 -0.0000 -20.6651 -33.4213 -16.7461 10.7658 7.1250 -0.0000 -0.0000 -5.5651 -49.7229 0.6498
-1.1985 18.9274 5.1088 -2.9388 8.9829 21.6075 0.0000 0.0000 0.0000 -0.7906 -21.0010 -29.7988 1.5904 7.9550 22.5776 0.4824 6.6070 -17.1834 8.8470 -16.7083 -55.5595 0.0000 0.0000 0.0000 20.6547 -1.3872 -18.4129 0.0000 0.0000 -0.0000 -0.4397 -9.0273 -18.9102 -0.0064 0.5154 -1.4162 -7.1372 1.8422 27.1366 -2.4680 -0.2299 -0.3522 1.3049 0.3252 -14.8934 -4.5283 -3.2051 -12.5345 10.3637 -3.6996 -4.3818 4.0664 -1.5998 1.1173 -0.0000 0.0000 0.0000 -120.8043 -61.8389 108.7550 160.7047 -29.7840 -114.8233 -0.0000 0.0000 -41.2900 37.6684 -42.0004 -27.3198 -7.1250 0.0000 -0.0000 0.3199 -18.7007 -0.4056 -0.0000 0.0000 0.0000 115.9675 50.5185 108.0994 -161.6021 28.6636 -115.2615 0.0000 -0.0000 -18.0288 -32.9561 -16.9157 10.6826 7.1250 -0.0000 -0.0000 -5.0812 -49.8347 0.6070
-1.1904 18.9281 5.1186 -2.9086 8.8439 21.5737 0.0000 0.0000 0.0000 -0.9370 -20.8640 -29.7099 1.5904 7.9550 22.5775 0.4857 6.5729 -17.1932 8.8395 -16.7033 -55.5333 0.0000 0.0000 0.0000 20.5493 -1.2815 -18.2865 0.0000 0.0000 -0.0000 -0.4490 -9.0080 -18.9939 -0.0061 0.5058 -1.3897 -6.9183 1.7776 26.9473 -2.3608 -0.2073 -0.3033 1.2979 0.3188 -14.7485 -4.4721 -3.2157 -12.4811 10.1602 -3.7222 -4.3788 3.9809 -1.6174 1.1023 0.0000 -0.0000 0.0000 -120.6957 -61.8605 109.1541 160.5364 -29.9907 -114.7394 -0.0000 0.0000 -38.4288 38.4860 -42.1370 -28.0752 -7.1250 0.0000 -0.0000 0.6634 -19.1520 -0.8443 0.0000 -0.0000 0.0000 115.4329 51.5343 107.8215 -161.3736 28.9519 -115.1513 0.0000 -0.0000 -16.4797 -34.4561 -17.1981 11.4685 7.1250 -0.0000 -0.0000 -6.5978 -50.4388 0.8877
-1.1818 18.9277 5.1271 -2.8760 8.6765 21.6202 0.0000 0.0000 0.0000 -1.0629 -20.7214 -29.7215 1.5906 7.9555 22.5790 0.4831 6.5981 -17.1841 8.8504 -16.7105 -55.5714 0.0000 0.0000 0.0000 20.4240 -1.1181 -18.2503 0.0000 0.0000 -0.0000 -0.4512 -9.0190 -19.0288 -0.0052 0.4675 -1.2846 -6.6357 1.7098 26.6463 -2.3034 -0.1598 0.0782 1.1989 0.3111 -14.9283 -4.4513 -3.2367 -12.4052 10.0442 -3.7570 -4.3517 3.9335 -1.6392 1.0963 -0.0000 0.0000 0.0000 -120.5972 -61.8465 109.4111 160.3466 -30.2225 -114.6442 -0.0000 0.0000 -36.1271 38.6052 -42.9126 -28.5303 -7.1250 0.0000 -0.0000 0.4557 -19.9690 -0.5839 -0.0000 0.0000 0.0000 116.1177 50.9007 108.4048 -161.3363 28.9986 -115.1333 0.0000 -0.0000 -14.6067 -35.1610 -17.7097 12.0942 7.1250 -0.0000 -0.0000 -7.3065 -51.1717 1.1159
-1.1730 18.9295 5.1298 -2.7334 8.6855 21.6450 0.0000 0.0000 0.0000 -1.2636 -20.7584 -29.7147 1.5892 7.9522 22.5689 0.4818 6.5819 -17.1541 8.8489 -16.7095 -55.5660 0.0000 0.0000 0.0000 20.2432 -1.1719 -18.2381 0.0000 0.0000 -0.0000 -0.4577 -9.0074 -19.0877 -0.0030 0.3538 -0.9722 -6.3956 1.5846 26.7181 -2.1937 -0.2472 -0.0625 1.2196 0.2673 -15.1314 -4.4486 -3.2362 -12.2914 9.8943 -3.7743 -4.1464 3.8790 -1.6503 1.1407 -0.0000 0.0000 0.0000 -120.2043 -61.5879 109.2422 160.1701 -30.4368 -114.5551 -0.0000 0.0000 -34.3056 38.8816 -43.6327 -29.0925 -7.1250 0.0000 -0.0000 0.3334 -20.7875 -0.4301 -0.0000 0.0000 0.0000 115.6800 51.7292 108.4154 -161.1141 29.2766 -115.0251 0.0000 -0.0000 -12.6308 -36.9742 -18.2975 13.2982 7.1250 -0.0000 -0.0000 -9.2165 -52.2329 1.6525
-1.1647 18.9336 5.1383 -2.6712 8.5871 21.6153 0.0000 0.0000 0.0000 -1.4206 -20.6683 -29.6052 1.5858 7.9440 22.5440 0.4940 6.4880 -17.2206 8.7931 -16.6727 -55.3717 0.0000 0.0000 0.0000 20.1210 -1.1175 -18.1183 0.0000 -0.0000 0.0000 -0.4669 -8.9910 -19.1725 -0.0015 0.2508 -0.6892 -6.3047 1.5319 26.5135 -1.9665 -0.2330 -0.0285 1.4303 0.2745 -14.9739 -4.4407 -3.2280 -12.3348 9.6591 -3.7750 -3.9661 3.7935 -1.6514 1.2001 0.0000 0.0000 0.0000 -120.1085 -61.5363 109.3099 160.0063 -30.6347 -114.4719 -0.0000 0.0000 -32.5944 39.2332 -44.0527 -29.5862 -7.1250 0.0000 -0.0000 0.3459 -21.3379 -0.4480 0.0000 0.0000 0.0000 116.1219 50.9355 108.5663 -160.9851 29.4371 -114.9619 0.0000 -0.0000 -11.0396 -36.9656 -18.2023 13.2298 7.1250 -0.0000 -0.0000 -9.2080 -52.1185 1.6250
-1.1573 18.9352 5.1418 -2.5899 8.5390 21.7018 0.0000 0.0000 0.0000 -1.4901 -20.7309 -29.6318 1.5796 7.9292 22.4994 0.4987 6.4863 -17.2744 8.7323 -16.6324 -55.1598 0.0000 0.0000 0.0000 19.9956 -1.0624 -18.1621 0.0000 -0.0000 0.0000 -0.4678 -9.0167 -19.2075 -0.0013 0.2354 -0.6467 -6.3158 1.4457 26.0353 -1.6496 -0.2521 0.1092 1.8187 0.2701 -14.5353 -4.4880 -3.1783 -12.4586 9.3896 -3.6998 -3.9226 3.7109 -1.6152 1.2231 0.0000 -0.0000 0.0000 -120.2034 -61.7170 109.4687 159.8310 -30.8454 -114.3823 -0.0000 0.0000 -30.7515 39.3347 -44.4676 -29.8587 -7.1250 0.0000 -0.0000 0.2421 -21.7830 -0.3146 0.0000 -0.0000 0.0000 115.7523 52.7261 108.6978 -160.8121 29.6516 -114.8765 0.0000 -0.0000 -10.2285 -38.5020 -18.8269 14.3977 7.1250 -0.0000 -0.0000 -10.8876 -53.1940 2.2153
-1.1487 18.9356 5.1512 -2.5457 8.3233 21.7310 0.0000 0.0000 0.0000 -1.6417 -20.5487 -29.5822 1.5733 7.9141 22.4534 0.5021 6.4543 -17.2879 8.7216 -16.6252 -55.1223 0.0000 0.0000 0.0000 19.8475 -0.8638 -18.0981 0.0000 -0.0000 0.0000 -0.4633 -9.0700 -19.2102 -0.0031 0.3611 -0.9921 -6.3770 1.3909 25.5322 -1.3580 -0.2477 0.2732 2.1942 0.2747 -14.0555 -4.4650 -3.0815 -12.5604 9.1088 -3.5656 -3.9552 3.6144 -1.5522 1.2104 0.0000 -0.0000 0.0000 -120.1392 -61.8744 109.5881 159.6400 -31.0737 -114.2840 -0.0000 0.0000 -28.6989 39.4392 -44.8100 -30.1009 -7.1250 0.0000 -0.0000 0.1641 -22.1572 -0.2138 0.0000 -0.0000 0.0000 115.9224 53.4745 109.1606 -160.7080 29.7799 -114.8249 0.0000 -0.0000 -9.1038 -39.2991 -19.5208 15.2958 7.1250 -0.0000 -0.0000 -11.8017 -54.2061 2.6989
